<?xml version="1.0" encoding="UTF-8"?>
<svg xmlns="http://www.w3.org/2000/svg" xmlns:xlink="http://www.w3.org/1999/xlink" viewBox="0 0 48 48" width="48px" height="48px">
<defs>
<linearGradient id="linear0" gradientUnits="userSpaceOnUse" x1="114.709671" y1="114.709671" x2="56.906921" y2="56.906921" >
<stop offset="0" style="stop-color:rgb(90.980393%,91.764706%,92.941177%);stop-opacity:1;"/>
<stop offset="0.242" style="stop-color:rgb(18.82353%,19.215687%,20.392157%);stop-opacity:1;"/>
<stop offset="1" style="stop-color:rgb(18.82353%,19.215687%,20.392157%);stop-opacity:1;"/>
</linearGradient>
<linearGradient id="linear1" gradientUnits="userSpaceOnUse" x1="114.709671" y1="114.709671" x2="56.906921" y2="56.906921" gradientTransform="matrix(0.941999,0,0,0.941999,1.392,1.392)">
<stop offset="0" style="stop-color:rgb(90.980393%,91.764706%,92.941177%);stop-opacity:1;"/>
<stop offset="0.242" style="stop-color:rgb(18.82353%,19.215687%,20.392157%);stop-opacity:1;"/>
<stop offset="1" style="stop-color:rgb(18.82353%,19.215687%,20.392157%);stop-opacity:1;"/>
</linearGradient>
</defs>
<g id="surface11492044">
<path style="fill-rule:nonzero;fill:url(#linear0);stroke-width:10;stroke-linecap:butt;stroke-linejoin:round;stroke:rgb(80.000001%,80.000001%,80.000001%);stroke-opacity:1;stroke-miterlimit:10;" d="M 44.795353 86.000003 C 44.795353 63.23566 63.23566 44.795353 86.000003 44.795353 C 108.764346 44.795353 127.204652 63.23566 127.204652 86.000003 C 127.204652 108.764346 108.764346 127.204652 86.000003 127.204652 C 63.23566 127.204652 44.795353 108.764346 44.795353 86.000003 Z M 44.795353 86.000003 " transform="matrix(0.262884,0,0,0.262884,1.392,1.392)"/>
<path style="fill-rule:nonzero;fill:rgb(90.980393%,91.764706%,92.941177%);fill-opacity:1;stroke-width:10;stroke-linecap:butt;stroke-linejoin:round;stroke:rgb(80.000001%,80.000001%,80.000001%);stroke-opacity:1;stroke-miterlimit:10;" d="M 60.91762 86.000003 C 60.91762 72.151199 72.151199 60.91762 86.000003 60.91762 C 99.848807 60.91762 111.082386 72.151199 111.082386 86.000003 C 111.082386 99.848807 99.848807 111.082386 86.000003 111.082386 C 72.151199 111.082386 60.91762 99.848807 60.91762 86.000003 Z M 60.91762 86.000003 " transform="matrix(0.262884,0,0,0.262884,1.392,1.392)"/>
<path style="fill-rule:nonzero;fill:rgb(90.980393%,91.764706%,92.941177%);fill-opacity:1;stroke-width:10;stroke-linecap:butt;stroke-linejoin:round;stroke:rgb(80.000001%,80.000001%,80.000001%);stroke-opacity:1;stroke-miterlimit:10;" d="M 157.666077 86.000003 C 157.666077 90.606364 157.190582 95.078993 156.358465 99.447607 C 147.517222 99.269297 138.839431 103.771644 134.099336 111.988799 C 129.195789 120.47342 129.849595 130.637135 134.886875 138.304498 C 127.427541 145.273478 118.497142 150.682238 108.586035 153.980988 C 104.529465 145.570663 95.955688 139.745844 86.000003 139.745844 C 76.044317 139.745844 67.470541 145.570663 63.41397 153.980988 C 53.502863 150.682238 44.572465 145.273478 37.11313 138.304498 C 42.15041 130.622275 42.804216 120.47342 37.90067 111.97394 C 33.160575 103.771644 24.482783 99.269297 15.641541 99.447607 C 14.809424 95.078993 14.333928 90.606364 14.333928 86.000003 C 14.333928 80.115747 15.121467 74.424661 16.458798 68.956464 C 25.017716 68.852449 33.309167 64.39468 37.90067 56.430132 C 42.313861 48.777627 42.224706 39.772933 38.48018 32.447332 C 46.102966 25.686381 55.122519 20.48565 65.107923 17.454367 C 69.595411 24.215317 77.277634 28.673087 86.000003 28.673087 C 94.722372 28.673087 102.404594 24.215317 106.892082 17.454367 C 116.892345 20.48565 125.911899 25.686381 133.519826 32.447332 C 129.775299 39.772933 129.686144 48.777627 134.099336 56.430132 C 138.690838 64.39468 146.98229 68.852449 155.541207 68.956464 C 156.878538 74.424661 157.666077 80.115747 157.666077 86.000003 Z M 123.623577 86.000003 C 123.623577 65.226797 106.773209 48.376428 86.000003 48.376428 C 65.226797 48.376428 48.376428 65.226797 48.376428 86.000003 C 48.376428 106.773209 65.226797 123.623577 86.000003 123.623577 C 106.773209 123.623577 123.623577 106.773209 123.623577 86.000003 Z M 123.623577 86.000003 " transform="matrix(0.262884,0,0,0.262884,1.392,1.392)"/>
<path style=" stroke:none;fill-rule:nonzero;fill:url(#linear1);" d="M 34.832031 24 C 34.832031 29.984375 29.984375 34.832031 24 34.832031 C 18.015625 34.832031 13.167969 29.984375 13.167969 24 C 13.167969 18.015625 18.015625 13.167969 24 13.167969 C 29.984375 13.167969 34.832031 18.015625 34.832031 24 Z M 34.832031 24 "/>
<path style=" stroke:none;fill-rule:nonzero;fill:rgb(90.980393%,91.764706%,92.941177%);fill-opacity:1;" d="M 30.59375 24 C 30.59375 27.640625 27.640625 30.59375 24 30.59375 C 20.359375 30.59375 17.40625 27.640625 17.40625 24 C 17.40625 20.359375 20.359375 17.40625 24 17.40625 C 27.640625 17.40625 30.59375 20.359375 30.59375 24 Z M 30.59375 24 "/>
<path style=" stroke:none;fill-rule:nonzero;fill:rgb(90.980393%,91.764706%,92.941177%);fill-opacity:1;" d="M 42.28125 19.519531 C 40.03125 19.492188 37.851562 18.320312 36.644531 16.226562 C 35.484375 14.214844 35.507812 11.847656 36.492188 9.921875 C 34.492188 8.144531 32.121094 6.777344 29.492188 5.980469 C 28.3125 7.757812 26.292969 8.929688 24 8.929688 C 21.707031 8.929688 19.6875 7.757812 18.507812 5.980469 C 15.882812 6.777344 13.511719 8.144531 11.507812 9.921875 C 12.492188 11.847656 12.515625 14.214844 11.355469 16.226562 C 10.148438 18.320312 7.96875 19.492188 5.71875 19.519531 C 5.367188 20.957031 5.160156 22.453125 5.160156 24 C 5.160156 25.210938 5.285156 26.386719 5.503906 27.535156 C 7.828125 27.488281 10.109375 28.671875 11.355469 30.828125 C 12.644531 33.0625 12.472656 35.730469 11.148438 37.75 C 13.109375 39.582031 15.457031 41.003906 18.0625 41.871094 C 19.128906 39.660156 21.382812 38.128906 24 38.128906 C 26.617188 38.128906 28.871094 39.660156 29.9375 41.871094 C 32.542969 41.003906 34.890625 39.582031 36.851562 37.75 C 35.527344 35.734375 35.355469 33.0625 36.644531 30.832031 C 37.890625 28.671875 40.171875 27.488281 42.496094 27.535156 C 42.714844 26.386719 42.839844 25.210938 42.839844 24 C 42.839844 22.453125 42.632812 20.957031 42.28125 19.519531 Z M 24 33.890625 C 18.539062 33.890625 14.109375 29.460938 14.109375 24 C 14.109375 18.539062 18.539062 14.109375 24 14.109375 C 29.460938 14.109375 33.890625 18.539062 33.890625 24 C 33.890625 29.460938 29.460938 33.890625 24 33.890625 Z M 24 33.890625 "/>
</g>
</svg>
